<svg
    xmlns:dc="http://purl.org/dc/elements/1.1/"
    xmlns:cc="http://creativecommons.org/ns#"
    xmlns:rdf="http://www.w3.org/1999/02/22-rdf-syntax-ns#"
    xmlns:svg="http://www.w3.org/2000/svg"
    xmlns="http://www.w3.org/2000/svg"
    xmlns:sodipodi="http://sodipodi.sourceforge.net/DTD/sodipodi-0.dtd"
    xmlns:inkscape="http://www.inkscape.org/namespaces/inkscape"
    viewBox="0 0 50 60"
    version="1.1"
    id="svg4"
    sodipodi:docname="htmlacademy.svg"
    width="50"
    height="60">
  <path
      d="M 25.253807,0.7898051 H 25.000001 L 0,3.2457634 V 45.581805 L 25.000001,59.265 50,45.581805 V 3.2457634 Z M 46.827412,43.827548 25.000001,55.756489 3.1725892,43.827548 V 26.518891 l 21.7005098,11.92894 v 2.105104 L 10.025381,32.366411 v 2.105106 l 14.97462,8.303477 v 2.222058 l -14.97462,-8.186526 v 2.105106 l 14.97462,8.18653 15.101523,-8.303482 v -8.888227 l 6.725888,-3.742415 z m -0.126905,-19.881566 -5.964466,3.27461 -2.791877,1.520357 -13.071065,-7.133974 v 2.105108 l 11.167512,6.19837 h -0.126905 l -0.253807,0.11695 -1.649746,0.818652 -9.26396,-5.028867 v 2.105109 l 7.360406,3.97631 -1.776648,1.052554 -5.456852,-3.040708 v 2.105105 L 28.5533,34.003716 24.873099,35.991872 3.2994924,24.179882 24.873099,12.250943 Z M 46.827412,21.840876 24.873099,9.911936 3.1725892,21.840876 V 5.9356221 L 25.000001,3.8305154 46.827412,5.9356221 Z"
      id="path2"
      style="fill:#2e368f;stroke-width:1.21825361" />
</svg>
